<?xml version="1.0" encoding="UTF-8" standalone="no"?>
<!DOCTYPE svg PUBLIC "-//W3C//DTD SVG 1.1//EN" "http://www.w3.org/Graphics/SVG/1.1/DTD/svg11.dtd">
<svg width="100%" height="100%" viewBox="0 0 1024 1024" version="1.1" xmlns="http://www.w3.org/2000/svg" xmlns:xlink="http://www.w3.org/1999/xlink" xml:space="preserve" xmlns:serif="http://www.serif.com/" style="fill-rule:evenodd;clip-rule:evenodd;stroke-linejoin:round;stroke-miterlimit:2;">
    <g id="Background" transform="matrix(1.266537,0,0,1.266537,45.728658,-127.462909)">
        <path d="M551.504,323.451C544.448,325.951 474.297,339.657 467.565,340.972C315.278,370.725 297.626,368.601 269.455,375.167C265.239,376.149 263.696,374.092 265.59,373.694C284.916,369.63 292.698,366.226 308.485,361.459C595.807,274.704 629.466,256.139 718.519,263.126C749.342,265.544 751.6,268.253 756.41,268.877C762.276,269.637 756.119,271.906 754.312,273.227C718.918,299.097 705.581,304.484 655.244,360.272C648.349,367.914 637.893,381.412 637.685,381.651C631.141,389.174 597.789,435.534 596.956,436.814C588.972,449.09 576.395,465.053 575.896,465.789C562.698,485.223 521.43,527.126 493.201,546.095C448.269,576.29 443.238,578.037 399.358,599.172C391.384,603.013 341.561,622.305 341.542,622.303C337.858,621.963 346.124,618.072 346.669,617.763C354.824,613.136 360.92,608.469 361.789,607.925C376.253,598.877 407.192,576.081 424.794,560.838C481.067,512.103 491.026,496.559 546.387,419.43C548.706,416.199 545.959,416.753 545.814,416.901C535.144,427.787 534.812,427.275 523.572,437.58C451.446,503.705 449.95,501.959 443.698,507.723C437.44,513.494 400.724,542.605 400.646,542.674C399.991,543.251 321.275,607.193 243.212,653.017C238.927,655.532 190.954,683.693 189.475,684.155C184.431,685.73 191.873,680.379 192.187,680.153C221.529,659.057 221.245,658.725 223.825,656.936C239.669,645.951 315.057,585.255 315.135,585.183C326.247,574.973 311.237,586.483 298.276,594.139C147.909,682.951 77.986,714.141 43.367,730.209C40.664,731.464 -58.175,777.339 8.7,743.865C32.28,732.062 76.744,703.456 80.622,700.686C93.739,691.315 105.589,683.355 107.782,681.881C119.848,673.775 150.051,651.223 153.387,648.362C187.516,619.089 188.202,619.94 216.071,593.051C251.412,558.952 260.034,544.141 274.254,530.302C278.659,526.016 272.819,528.719 272.682,528.824C270.112,530.795 268.177,532.279 238.292,550.166C231.487,554.239 161.325,596.234 153.333,601.23C140.225,609.426 139.323,607.305 88.455,614.238C65.541,617.361 62.836,618.662 62.527,618.434C60.78,617.142 65.181,615.891 67.633,614.726C68.803,614.17 152.332,572.033 154.661,570.82C214.555,539.624 214.483,539.582 219.712,536.919C304.867,493.556 450.686,401.053 536.607,335.651C551.423,324.374 554.129,325.019 552.534,323.447C552.289,323.206 551.748,323.692 551.504,323.451ZM657.465,285.864C682.07,293.005 648.003,323.478 639.589,301.469C637.589,296.237 641.27,291.457 641.804,290.764C645.635,285.789 656.153,285.855 657.465,285.864Z" style="fill:rgb(69,147,255);fill-opacity:1;"/>
        <path d="M460.272,368.316C415.371,392.117 277.896,477.497 223.34,498.061C218.366,499.936 219.153,496.42 210.351,491.768C197.646,485.052 174.226,472.673 31.5,474.942C28.114,474.996 15.956,476.611 24.623,472.737C54.116,459.554 145.745,409.065 239.457,393.294C276.741,387.02 389.587,375.598 397.466,374.259C401.99,373.49 402.007,374.359 454.487,368.039C456.297,367.821 460.899,366.157 460.874,367.5C460.868,367.838 460.278,367.978 460.272,368.316Z" style="fill:rgb(69,147,255);fill-opacity:1;"/>
        <path d="M6.833,702.038C6.959,699.07 13.066,698.816 18.4,695.333C29.034,688.391 153.606,620.543 166.439,613.234C168.193,612.236 168.863,613.945 167.163,615.121C122.429,646.066 122.692,646.272 118.794,648.936C71.101,681.521 67.691,686.197 49.569,690.782C10.079,700.774 10.361,702.265 6.833,702.038Z" style="fill:rgb(69,147,255);fill-opacity:0.99;"/>
    </g>
</svg>
